<?xml version="1.0" encoding="UTF-8" standalone="no"?>
<!-- Created with Inkscape (http://www.inkscape.org/) -->

<svg
   width="118.03729mm"
   height="103.98289mm"
   viewBox="0 0 118.03729 103.98289"
   version="1.1"
   id="svg5"
   inkscape:version="1.1.2 (b8e25be833, 2022-02-05)"
   sodipodi:docname="Canada Computers (Icon).svg"
   xmlns:inkscape="http://www.inkscape.org/namespaces/inkscape"
   xmlns:sodipodi="http://sodipodi.sourceforge.net/DTD/sodipodi-0.dtd"
   xmlns="http://www.w3.org/2000/svg"
   xmlns:svg="http://www.w3.org/2000/svg">
  <sodipodi:namedview
     id="namedview7"
     pagecolor="#ffffff"
     bordercolor="#666666"
     borderopacity="1.0"
     inkscape:pageshadow="2"
     inkscape:pageopacity="0.0"
     inkscape:pagecheckerboard="0"
     inkscape:document-units="mm"
     showgrid="false"
     inkscape:zoom="0.90583672"
     inkscape:cx="219.13441"
     inkscape:cy="246.18123"
     inkscape:window-width="1920"
     inkscape:window-height="1017"
     inkscape:window-x="-8"
     inkscape:window-y="-8"
     inkscape:window-maximized="1"
     inkscape:current-layer="layer1" />
  <defs
     id="defs2" />
  <g
     inkscape:label="Layer 1"
     inkscape:groupmode="layer"
     id="layer1"
     transform="translate(-46.33724,-47.716436)">
    <g
       id="g992"
       style="fill:#ffdd00;fill-opacity:1"
       transform="matrix(1.511361,0,0,1.4833507,34.850896,34.514615)">
      <path
         class="st0"
         d="m 68.5,61.3 c -2.5,4 -5.2,7 -8.1,9 -2.8,1.9 -6.1,2.9 -9.7,2.9 -1.8,0 -3.4,-0.3 -4.9,-0.8 2.6,-2.6 5.1,-6 7.3,-10.2 h -1.9 c -2.5,4 -5.2,7.1 -8.1,9 -1.5,-0.9 -2.9,-1.9 -4.1,-3.4 -3,-3.6 -4.5,-8.6 -4.5,-14.7 0,-6.1 1.1,-12.2 3.2,-18.1 2.6,-7.2 6.2,-12.8 10.8,-16.7 0.8,-0.7 1.7,-1.3 2.6,-1.9 0.2,0.2 0.4,0.3 0.5,0.5 1,1.1 1.7,2.4 2.2,3.9 0.5,1.5 0.8,3.2 0.9,5.2 l 0.2,5.3 h 1.5 l 3.4,-17.5 c 0.3,0 0.6,-0.1 1,-0.1 1.2,0 2.3,0.1 3.4,0.4 l 3.3,1.5 c 0.6,0.4 1,0.8 1.5,1.3 0.9,1 1.6,2.3 2.1,3.7 l 0.9,5 0.2,6.1 h 3 L 79.7,8.9 h -1 -1.9 L 74.3,11.8 73,12.1 C 72.7,12.1 71.9,12 70.1,11.2 66.7,9.7 63.5,8.9 60.7,8.9 56.9,8.9 53.1,9.7 49.4,11.4 47,10.5 44.8,10.1 42.8,10.1 37.1,10.1 31.4,12 25.7,15.9 20.1,19.8 15.6,25.1 12.4,31.8 9.2,38.6 7.6,45.5 7.6,52.7 c 0,4.7 0.9,9 2.7,13.1 1.8,4.1 4.5,7.2 7.9,9.4 3.5,2.2 7.5,3.4 12,3.4 3.1,0 5.8,-0.5 8.4,-1.5 2.9,1.3 6.1,1.9 9.6,1.9 5.2,0 9.8,-1.4 13.6,-4.1 3.7,-2.7 7.1,-7 10.2,-12.7 L 72.6,61 h -3.7 z m -35.8,13 c -5.1,0 -9.2,-1.9 -12.3,-5.7 -3.2,-3.8 -4.7,-8.8 -4.7,-15.2 0,-6.2 1.1,-12.3 3.3,-18.4 2.7,-7.3 6.3,-13 11,-17 3.7,-3.1 8,-4.7 12.8,-4.7 0.8,0 1.6,0.1 2.3,0.2 -0.7,0.4 -1.4,0.8 -2,1.3 -5.7,3.9 -10.3,9.4 -13.6,16.2 -3.3,6.8 -4.9,14 -4.9,21.2 0,4.8 0.9,9.3 2.8,13.4 1.6,3.5 3.8,6.3 6.6,8.5 -0.4,0.2 -0.8,0.2 -1.3,0.2 z"
         id="path988"
         style="fill:#ffdd00;fill-opacity:1" />
      <polygon
         class="st0"
         points="73.9,57.8 73.7,54.4 79.8,55 79,52.7 85.7,47.8 83.9,46.6 85.4,42.6 81.1,43 80.2,41.1 77.3,44.8 76.5,44.4 77.9,37.5 75.9,39 73,34 70.3,38.8 68.2,37.4 69.6,44.4 68.8,44.7 66,41.2 65,43 60.9,42.6 62.3,46.7 60.3,47.8 67,52.7 66.4,55 72.7,54.4 72.4,57.8 "
         id="polygon990"
         style="fill:#ffdd00;fill-opacity:1" />
    </g>
  </g>
  <style
     type="text/css"
     id="style928">
	.st0{fill:#FFDD00;}
</style>
  <style
     type="text/css"
     id="style6115">
	.st0{fill:#FFDD00;}
</style>
</svg>
