<?xml version="1.0" encoding="UTF-8"?>
<svg id="Layer_1" data-name="Layer 1" xmlns="http://www.w3.org/2000/svg" viewBox="0 0 216.73 52.55">
  <defs>
    <style>
      .cls-1 {
        fill: #fd0;
      }
    </style>
  </defs>
  <g>
    <path class="cls-1" d="m22.7,11.09c.14.4.57.61.97.47.24-.08.43-.29.49-.54l1.63-7.07,2.51,1.89c.29.22.69.2.96-.04l4.81-4.33,1.46,6.88c.08.37.42.63.81.6l1.67-.15V0h-19.12l3.82,11.09Z"/>
    <path class="cls-1" d="m16.39,3.12s.02-.03.03-.04l1.77-3.07h-7.98l5.13,3.33c.35.23.82.13,1.05-.22Z"/>
    <path class="cls-1" d="m33.98,21.91c-.12.3-.03.65.22.86l3.04,2.56-9.58,3.49c-.58.21-.87.85-.66,1.43.03.08.06.15.11.21l4.89,7.54h5.98V11.45l-4.02,10.46Z"/>
    <path class="cls-1" d="m3.79,20.5c.34-.11.56-.45.52-.81l-.38-3.11,6.93,2.12c.4.12.82-.11.94-.51.07-.25.02-.52-.15-.71L3.44,8.01h4.41c.42,0,.76-.33.76-.75,0-.02,0-.03,0-.05l-.38-7.21H0v21.73l3.79-1.23Z"/>
    <path class="cls-1" d="m26.22,30.99c-.28-.54-.95-.76-1.5-.48-.07.04-.14.08-.2.13l-7.81,6.55-.7-3.92c-.05-.32-.31-.57-.63-.62l-13.98-2.21,1.57-2.24c.22-.31.17-.74-.12-1l-2.86-2.57v13.37h29.79l-3.58-7.01Z"/>
  </g>
  <g>
    <path class="cls-1" d="m66.77,49.13v-11.13h1.06v5.58l-.15,1.59.1,1.59v2.37h-1.02Zm4.06.08c-.69,0-1.31-.16-1.86-.47-.55-.31-.99-.77-1.31-1.37s-.48-1.32-.48-2.17.16-1.59.49-2.18c.33-.59.76-1.05,1.31-1.36s1.17-.47,1.84-.47c.75,0,1.42.17,2.02.5s1.06.8,1.4,1.4.51,1.3.51,2.1-.17,1.49-.51,2.09-.81,1.08-1.4,1.42c-.59.34-1.27.51-2.02.51Zm-.08-.95c.56,0,1.06-.13,1.5-.38.44-.25.79-.62,1.05-1.08.26-.46.39-1,.39-1.61s-.13-1.16-.39-1.62c-.26-.46-.61-.82-1.05-1.07-.44-.25-.94-.38-1.5-.38s-1.06.13-1.51.38c-.45.26-.79.61-1.05,1.07-.26.46-.38,1-.38,1.62s.13,1.15.38,1.61c.25.46.6.83,1.05,1.08.44.25.95.38,1.51.38Z"/>
    <path class="cls-1" d="m77,52.12c-.37,0-.72-.06-1.06-.18-.33-.12-.62-.3-.86-.54l.5-.79c.2.19.42.34.65.44s.5.16.79.16c.35,0,.65-.1.91-.29.25-.19.5-.54.73-1.03l.51-1.15.12-.17,3.24-7.31h1.05l-3.94,8.82c-.22.51-.46.92-.73,1.22-.26.3-.55.51-.86.64-.31.12-.66.19-1.04.19Zm2.1-2.76l-3.63-8.1h1.11l3.21,7.23-.69.87Z"/>
  </g>
  <g>
    <path class="cls-1" d="m99.44,38.29l-.78,3.37h-.3c-.04-.92-.26-1.6-.68-2.05-.41-.45-.96-.68-1.62-.68-.72,0-1.44.31-2.15.92-.71.61-1.32,1.55-1.81,2.82-.4,1.03-.6,2.04-.6,3.04,0,.9.22,1.58.66,2.05.44.47,1.04.71,1.81.71.62,0,1.18-.14,1.7-.41.51-.27,1.03-.71,1.55-1.32h.38c-.65.97-1.3,1.65-1.96,2.04-.66.39-1.46.59-2.42.59-1.28,0-2.3-.39-3.08-1.16-.78-.77-1.17-1.78-1.17-3.03,0-1.17.31-2.28.93-3.34.62-1.06,1.51-1.92,2.68-2.57,1.16-.65,2.32-.98,3.47-.98.44,0,.98.09,1.63.28.33.09.56.14.7.14.26,0,.52-.14.79-.42h.29Z"/>
    <path class="cls-1" d="m106.25,42l-1.52,5.2-.16.63c-.02.08-.02.14-.02.17,0,.06.02.12.07.16s.09.07.14.07c.11,0,.26-.08.45-.25.08-.07.27-.31.56-.72l.27.14c-.37.68-.76,1.17-1.18,1.48s-.87.46-1.36.46c-.3,0-.52-.08-.68-.23s-.23-.35-.23-.58c0-.2.08-.58.25-1.13l.19-.63c-.6,1.04-1.19,1.77-1.74,2.2-.32.25-.67.38-1.03.38-.48,0-.83-.2-1.04-.59-.21-.39-.32-.84-.32-1.33,0-.73.22-1.58.67-2.53.45-.95,1.04-1.71,1.77-2.29.6-.48,1.16-.72,1.69-.72.29,0,.53.08.7.25.18.17.31.48.39.93l.28-.96,1.85-.11Zm-2.5,1.48c0-.42-.07-.73-.2-.91-.09-.13-.22-.2-.38-.2s-.33.08-.5.23c-.35.32-.73.98-1.13,1.96-.4.99-.61,1.84-.61,2.56,0,.28.04.48.14.6.09.12.19.18.3.18.23,0,.47-.14.71-.41.34-.39.65-.86.93-1.41.49-.98.73-1.85.73-2.61Z"/>
    <path class="cls-1" d="m110.86,41.89l-.97,3.35c.65-.98,1.14-1.65,1.46-2.01.47-.52.88-.88,1.23-1.06s.67-.28.97-.28c.27,0,.5.1.7.3.19.2.29.46.29.79,0,.29-.06.65-.19,1.06l-1,3.34c-.08.29-.12.48-.12.57,0,.05.02.1.06.14.04.04.08.06.12.06.05,0,.11-.02.16-.06.18-.15.37-.36.55-.64.05-.07.12-.18.23-.33l.3.18c-.77,1.29-1.57,1.93-2.41,1.93-.32,0-.58-.08-.76-.25s-.27-.38-.27-.62c0-.22.06-.54.19-.98l.98-3.34c.07-.22.1-.38.1-.48,0-.06-.02-.11-.07-.15-.05-.04-.1-.07-.16-.07-.2,0-.44.14-.72.41-.72.69-1.41,1.71-2.09,3.07l-.64,2.32h-1.99l1.46-5.02c.14-.49.21-.85.21-1.05,0-.09-.02-.16-.06-.22-.04-.06-.11-.11-.2-.14-.09-.03-.27-.05-.53-.05l.09-.3,2.63-.46h.48Z"/>
    <path class="cls-1" d="m123.15,42l-1.52,5.2-.16.63c-.02.08-.02.14-.02.17,0,.06.02.12.07.16s.09.07.14.07c.11,0,.26-.08.45-.25.08-.07.27-.31.56-.72l.27.14c-.37.68-.76,1.17-1.18,1.48s-.87.46-1.36.46c-.3,0-.52-.08-.68-.23s-.23-.35-.23-.58c0-.2.08-.58.25-1.13l.19-.63c-.6,1.04-1.18,1.77-1.74,2.2-.32.25-.67.38-1.03.38-.48,0-.83-.2-1.04-.59s-.32-.84-.32-1.33c0-.73.22-1.58.67-2.53.45-.95,1.04-1.71,1.77-2.29.6-.48,1.16-.72,1.69-.72.29,0,.53.08.7.25.18.17.31.48.39.93l.28-.96,1.85-.11Zm-2.5,1.48c0-.42-.07-.73-.2-.91-.09-.13-.22-.2-.38-.2s-.33.08-.5.23c-.35.32-.73.98-1.13,1.96-.4.99-.61,1.84-.61,2.56,0,.28.05.48.14.6.09.12.19.18.3.18.23,0,.47-.14.71-.41.34-.39.65-.86.93-1.41.49-.98.73-1.85.73-2.61Z"/>
    <path class="cls-1" d="m132.21,38.29l-2.54,8.74c-.16.55-.24.88-.24.99,0,.06.02.11.06.15.04.04.09.06.13.06.09,0,.19-.04.3-.13.19-.15.43-.42.7-.83l.28.15c-.73,1.28-1.54,1.92-2.42,1.92-.31,0-.55-.08-.72-.25s-.25-.37-.25-.63.07-.59.2-1.05l.23-.8c-.65,1.15-1.22,1.92-1.7,2.3-.36.28-.72.42-1.06.42-.39,0-.72-.16-.99-.48s-.4-.78-.4-1.39c0-.78.17-1.54.52-2.3.34-.75.74-1.39,1.19-1.89.45-.5.88-.87,1.29-1.08.41-.22.81-.32,1.21-.32.2,0,.38.04.54.12.16.08.34.24.54.47l.58-1.95c.14-.48.21-.82.21-1.03,0-.12-.05-.23-.14-.32-.09-.09-.22-.13-.38-.13-.07,0-.16,0-.27.02l.08-.3,2.57-.48h.47Zm-3.44,4.95c0-.32-.06-.55-.19-.7-.12-.15-.27-.22-.44-.22s-.35.09-.54.26c-.37.33-.76,1-1.16,2.01s-.61,1.86-.61,2.54c0,.25.04.44.13.55.09.12.19.18.3.18.18,0,.36-.08.55-.25.44-.4.88-1.08,1.31-2.04.43-.97.64-1.75.64-2.34Z"/>
    <path class="cls-1" d="m139.15,42l-1.52,5.2-.16.63c-.02.08-.02.14-.02.17,0,.06.02.12.07.16s.09.07.14.07c.11,0,.26-.08.45-.25.08-.07.27-.31.56-.72l.27.14c-.37.68-.76,1.17-1.18,1.48s-.87.46-1.36.46c-.3,0-.52-.08-.68-.23s-.23-.35-.23-.58c0-.2.08-.58.25-1.13l.19-.63c-.6,1.04-1.18,1.77-1.74,2.2-.32.25-.67.38-1.03.38-.48,0-.83-.2-1.04-.59s-.32-.84-.32-1.33c0-.73.22-1.58.67-2.53.45-.95,1.04-1.71,1.77-2.29.6-.48,1.16-.72,1.69-.72.29,0,.53.08.7.25.18.17.31.48.39.93l.28-.96,1.85-.11Zm-2.5,1.48c0-.42-.07-.73-.2-.91-.09-.13-.22-.2-.38-.2s-.33.08-.5.23c-.35.32-.73.98-1.13,1.96-.4.99-.61,1.84-.61,2.56,0,.28.05.48.14.6.09.12.19.18.3.18.23,0,.47-.14.71-.41.34-.39.65-.86.93-1.41.49-.98.73-1.85.73-2.61Z"/>
    <path class="cls-1" d="m155.01,38.29l-.78,3.37h-.3c-.04-.92-.26-1.6-.68-2.05-.41-.45-.95-.68-1.62-.68-.72,0-1.43.31-2.15.92-.71.61-1.32,1.55-1.81,2.82-.4,1.03-.6,2.04-.6,3.04,0,.9.22,1.58.66,2.05.44.47,1.04.71,1.81.71.62,0,1.18-.14,1.7-.41.51-.27,1.03-.71,1.55-1.32h.38c-.65.97-1.3,1.65-1.96,2.04s-1.46.59-2.42.59c-1.28,0-2.3-.39-3.08-1.16s-1.17-1.78-1.17-3.03c0-1.17.31-2.28.93-3.34.62-1.06,1.51-1.92,2.68-2.57,1.16-.65,2.32-.98,3.47-.98.44,0,.98.09,1.63.28.33.09.57.14.7.14.26,0,.52-.14.79-.42h.29Z"/>
    <path class="cls-1" d="m159.41,41.89c.41,0,.8.1,1.16.29.36.19.64.45.82.79.18.34.28.71.28,1.12,0,.84-.24,1.69-.71,2.53s-1.09,1.51-1.86,2c-.77.49-1.55.73-2.33.73-.71,0-1.26-.21-1.64-.63s-.58-.94-.58-1.55c0-.72.14-1.4.43-2.04s.66-1.18,1.1-1.66c.45-.47.96-.85,1.54-1.15.58-.29,1.18-.44,1.8-.44Zm-.32.41c-.28,0-.5.08-.69.24-.36.33-.78,1.1-1.23,2.3-.46,1.21-.69,2.29-.69,3.26,0,.24.07.44.22.59s.32.23.52.23.38-.06.54-.19c.23-.19.51-.61.84-1.26.33-.65.61-1.38.82-2.16s.32-1.51.32-2.17c0-.27-.07-.48-.2-.63s-.28-.22-.45-.22Z"/>
    <path class="cls-1" d="m166.4,41.89l-1,3.36c.67-1.03,1.16-1.73,1.47-2.09.45-.53.83-.87,1.12-1.03.29-.16.59-.24.89-.24.34,0,.58.1.73.3s.23.43.23.67-.07.63-.21,1.12l-.35,1.26c.68-1.04,1.16-1.73,1.46-2.08.46-.53.86-.89,1.2-1.08.23-.14.48-.2.75-.2s.51.09.69.28c.18.19.28.43.28.72,0,.33-.08.77-.23,1.3l-.87,2.91c-.13.43-.2.71-.2.84,0,.04.02.08.05.12.03.04.07.05.11.05.06,0,.11-.02.15-.05.19-.15.39-.37.59-.66.05-.06.12-.16.21-.29l.27.17c-.36.67-.75,1.16-1.18,1.48s-.83.47-1.19.47c-.32,0-.57-.09-.77-.26-.19-.17-.29-.38-.29-.61s.07-.56.2-1.02l.88-3.05c.12-.42.18-.68.18-.79,0-.04-.02-.07-.05-.11-.04-.03-.07-.05-.11-.05-.07,0-.14.02-.2.05-.1.05-.25.19-.46.41s-.5.61-.89,1.18c-.39.57-.65,1.01-.8,1.32-.15.32-.3.73-.44,1.23l-.48,1.61h-1.98l1.46-5.1c.08-.28.12-.47.12-.57,0-.04-.02-.07-.05-.1s-.07-.05-.11-.05c-.19,0-.5.25-.91.76-.64.78-1.21,1.72-1.73,2.82l-.63,2.24h-1.99l1.47-5.02c.15-.49.22-.85.22-1.05,0-.08-.02-.15-.06-.21-.04-.06-.11-.11-.2-.14-.09-.03-.27-.05-.54-.05l.08-.3,2.66-.46h.47Z"/>
    <path class="cls-1" d="m175.57,42.33l2.59-.44h.47l-.35,1.27c.55-.5,1-.84,1.34-1.01.35-.17.7-.26,1.04-.26.49,0,.87.19,1.13.57.27.38.4.84.4,1.39,0,1.5-.52,2.82-1.55,3.98-.92,1.02-1.92,1.53-3,1.53-.19,0-.36-.02-.49-.05-.14-.04-.33-.12-.57-.24l-.41,1.41c-.15.51-.22.9-.22,1.16,0,.17.06.3.17.39.11.1.38.18.8.25l-.07.29h-4.2l.08-.29c.33-.01.61-.12.83-.32s.43-.64.62-1.31l1.91-6.57c.14-.49.21-.84.21-1.04,0-.09-.02-.16-.06-.22-.04-.06-.1-.1-.19-.13-.08-.03-.27-.04-.56-.04l.09-.3Zm1.22,6c.16.26.3.43.42.51s.27.13.44.13.33-.05.49-.14c.16-.09.36-.27.59-.55.23-.28.46-.63.68-1.06.22-.43.39-.92.52-1.47.13-.55.2-1.07.2-1.57,0-.4-.07-.69-.21-.88-.14-.18-.32-.27-.52-.27-.18,0-.35.05-.52.14-.23.14-.51.39-.83.76l-1.25,4.41Z"/>
    <path class="cls-1" d="m186.85,41.89l-1.52,5.31c-.07.25-.11.41-.11.51,0,.05.02.08.05.11.04.04.09.06.15.06.24,0,.56-.21.96-.64.57-.62,1.17-1.51,1.8-2.67l.71-2.39,1.98-.07-1.5,5.16c-.12.44-.19.69-.19.75,0,.04.02.08.06.13.04.04.08.07.12.07.07,0,.14-.03.21-.09.19-.15.43-.46.74-.91l.27.19c-.72,1.31-1.52,1.96-2.39,1.96-.32,0-.58-.08-.76-.25s-.28-.38-.28-.64c0-.28.07-.64.2-1.07l.38-1.32c-.68.98-1.17,1.65-1.48,1.99-.47.52-.86.86-1.18,1.03s-.63.26-.92.26c-.28,0-.51-.1-.71-.3s-.3-.46-.3-.77c0-.27.07-.62.2-1.07l.88-3.12c.15-.51.22-.85.22-1.03,0-.08-.02-.15-.06-.21-.04-.06-.11-.11-.21-.14-.1-.03-.27-.05-.54-.05l.08-.3,2.66-.46h.47Z"/>
    <path class="cls-1" d="m196.08,39.98l-.62,2.12h1.02l-.27.9h-1.01l-1.3,4.53c-.08.28-.12.5-.12.64,0,.07.02.13.07.18.05.05.1.07.16.07.09,0,.18-.04.27-.11.24-.18.52-.5.84-.95l.27.17c-.36.62-.75,1.08-1.19,1.38s-.86.44-1.27.44c-.35,0-.63-.09-.82-.27s-.29-.41-.29-.68c0-.3.07-.69.2-1.16l1.23-4.23h-1.06l.16-.58c.67-.24,1.23-.53,1.69-.86s1.01-.86,1.66-1.59h.41Z"/>
    <path class="cls-1" d="m198.44,46.2c-.05.34-.07.62-.07.84,0,.39.11.7.34.94s.53.35.91.35.73-.09,1.1-.27c.37-.18.79-.49,1.28-.93l.23.21c-.6.72-1.18,1.24-1.75,1.55s-1.2.46-1.88.46c-.87,0-1.47-.21-1.8-.62s-.5-.9-.5-1.45c0-.85.25-1.71.75-2.56.5-.85,1.17-1.54,2.03-2.05s1.72-.77,2.58-.77c.44,0,.77.1.99.31.22.21.34.47.34.79,0,.38-.11.75-.33,1.11-.3.49-.68.88-1.14,1.18-.46.3-.97.53-1.54.68-.38.1-.89.18-1.53.23Zm.07-.41c.46-.07.81-.16,1.07-.28s.5-.3.74-.56.45-.58.63-.98c.18-.39.27-.76.27-1.11,0-.15-.04-.26-.12-.34-.08-.08-.18-.12-.31-.12-.25,0-.53.17-.84.52-.57.64-1.05,1.59-1.43,2.87Z"/>
    <path class="cls-1" d="m206.83,41.89l-1.18,4.39c.97-2.14,1.7-3.46,2.19-3.95.29-.29.59-.44.91-.44.22,0,.4.08.53.24.14.16.2.38.2.68,0,.51-.12.93-.37,1.27-.16.22-.33.33-.52.33-.21,0-.36-.1-.47-.29-.1-.19-.18-.31-.22-.34-.04-.03-.09-.05-.13-.05-.05,0-.11.02-.16.05-.11.06-.26.21-.45.46s-.41.65-.68,1.21c-.27.57-.48,1.05-.63,1.44-.15.39-.36,1.14-.63,2.25h-1.89l1.29-5.18c.09-.39.14-.64.14-.77,0-.14-.02-.25-.07-.33s-.12-.14-.2-.17c-.09-.04-.26-.05-.54-.05l.07-.23,2.36-.52h.47Z"/>
    <path class="cls-1" d="m215.23,41.89l-.34,2.41h-.29c-.04-.62-.23-1.12-.57-1.48s-.71-.54-1.1-.54c-.24,0-.44.07-.59.21s-.23.31-.23.51c0,.17.03.32.1.47.07.15.22.34.45.59.82.89,1.32,1.5,1.5,1.83.18.33.27.69.27,1.07,0,.41-.1.8-.31,1.17s-.52.66-.93.88-.84.33-1.29.33c-.3,0-.67-.06-1.12-.18-.29-.08-.51-.12-.66-.12-.13,0-.23.02-.3.06s-.15.12-.24.25h-.29l.38-2.6h.25c.18.63.35,1.08.51,1.35.16.27.37.48.64.64.27.16.52.24.77.24.29,0,.52-.09.71-.27s.28-.39.28-.64-.06-.48-.18-.71c-.12-.23-.41-.59-.85-1.07-.61-.66-1.01-1.17-1.2-1.53-.14-.26-.2-.56-.2-.89,0-.56.2-1.03.61-1.41s.98-.56,1.72-.56c.32,0,.72.06,1.19.17.23.06.42.09.56.09.2,0,.37-.09.49-.26h.28Z"/>
  </g>
  <g>
    <path class="cls-1" d="m57.76,28.86c-1.63,0-3.18-.21-4.64-.63-1.46-.42-2.64-.93-3.53-1.53l1.73-3.42c.86.55,1.9,1,3.1,1.35,1.2.35,2.41.52,3.64.52,1.39,0,2.41-.19,3.04-.56.64-.37.95-.88.95-1.53,0-.53-.22-.93-.65-1.21-.43-.28-1-.49-1.69-.63-.7-.14-1.47-.28-2.32-.4s-1.7-.28-2.56-.49c-.85-.2-1.63-.5-2.32-.9s-1.26-.93-1.69-1.6c-.43-.67-.65-1.57-.65-2.7,0-1.2.35-2.25,1.04-3.15.7-.9,1.67-1.6,2.93-2.11,1.26-.5,2.75-.76,4.48-.76,1.27,0,2.57.15,3.91.45,1.33.3,2.44.71,3.33,1.24l-1.76,3.42c-.89-.53-1.8-.89-2.74-1.1-.94-.2-1.86-.31-2.77-.31-1.34,0-2.35.2-3.02.59-.67.4-1.01.91-1.01,1.53,0,.58.22,1.01.65,1.3s1,.51,1.69.67c.7.16,1.47.3,2.32.43.85.13,1.7.3,2.54.5.84.2,1.61.49,2.32.86s1.28.89,1.71,1.57.65,1.55.65,2.63c0,1.22-.35,2.27-1.06,3.15-.71.88-1.7,1.56-2.99,2.05s-2.83.74-4.63.74Z"/>
    <path class="cls-1" d="m78.96,28.86c-1.94,0-3.69-.43-5.24-1.28-1.55-.85-2.77-2.02-3.65-3.51-.89-1.49-1.33-3.18-1.33-5.08s.44-3.65,1.33-5.11c.89-1.46,2.1-2.62,3.64-3.47,1.54-.85,3.29-1.28,5.26-1.28s3.76.43,5.31,1.28c1.55.85,2.76,2.01,3.64,3.47.88,1.46,1.31,3.17,1.31,5.11s-.44,3.62-1.31,5.09-2.09,2.64-3.65,3.49c-1.56.85-3.32,1.28-5.29,1.28Zm0-3.82c1.1,0,2.09-.25,2.95-.74.86-.49,1.54-1.2,2.03-2.12.49-.92.74-1.99.74-3.19s-.25-2.29-.74-3.19c-.49-.9-1.17-1.6-2.03-2.09-.86-.49-1.84-.74-2.92-.74s-2.05.25-2.92.74c-.86.49-1.55,1.19-2.05,2.09-.5.9-.76,1.96-.76,3.19s.25,2.26.76,3.19,1.19,1.63,2.05,2.12c.86.49,1.82.74,2.88.74Z"/>
    <path class="cls-1" d="m93.58,28.61V1.9h4.46v26.71h-4.46Z"/>
    <path class="cls-1" d="m112.11,28.86c-1.63,0-3.07-.31-4.32-.92s-2.23-1.55-2.93-2.81c-.71-1.26-1.06-2.85-1.06-4.77v-10.98h4.54v10.4c0,1.7.4,2.98,1.19,3.83.79.85,1.9,1.28,3.31,1.28,1.06,0,1.98-.22,2.77-.65s1.4-1.08,1.84-1.94c.43-.86.65-1.93.65-3.2v-9.72h4.5v19.22h-4.28v-5.22l.76,1.62c-.65,1.22-1.6,2.17-2.84,2.84-1.25.67-2.62,1.01-4.1,1.01Z"/>
    <path class="cls-1" d="m125.94,13.13v-3.6h12.82v3.6h-12.82Zm9.79,15.73c-2.11,0-3.74-.55-4.9-1.64-1.15-1.09-1.73-2.69-1.73-4.81V5.14h4.46v17.14c0,.91.24,1.62.72,2.12.48.5,1.15.76,2.02.76.98,0,1.8-.26,2.45-.79l1.3,3.2c-.55.43-1.21.76-1.98.97-.77.22-1.55.32-2.34.32Z"/>
    <path class="cls-1" d="m146.03,6.22c-.84,0-1.53-.26-2.07-.79-.54-.53-.81-1.18-.81-1.94,0-.72.27-1.34.81-1.87.54-.53,1.23-.79,2.07-.79s1.53.25,2.07.74c.54.49.81,1.12.81,1.89s-.26,1.42-.79,1.96c-.53.54-1.22.81-2.09.81Zm-2.23,22.39V9.39h4.46v19.22h-4.46Z"/>
    <path class="cls-1" d="m162.84,28.86c-1.94,0-3.69-.43-5.24-1.28-1.55-.85-2.77-2.02-3.65-3.51-.89-1.49-1.33-3.18-1.33-5.08s.44-3.65,1.33-5.11c.89-1.46,2.1-2.62,3.64-3.47,1.54-.85,3.29-1.28,5.26-1.28s3.76.43,5.31,1.28c1.55.85,2.76,2.01,3.64,3.47.88,1.46,1.31,3.17,1.31,5.11s-.44,3.62-1.31,5.09-2.09,2.64-3.65,3.49c-1.56.85-3.32,1.28-5.29,1.28Zm0-3.82c1.1,0,2.09-.25,2.95-.74.86-.49,1.54-1.2,2.03-2.12.49-.92.74-1.99.74-3.19s-.25-2.29-.74-3.19c-.49-.9-1.17-1.6-2.03-2.09-.86-.49-1.84-.74-2.92-.74s-2.05.25-2.92.74c-.86.49-1.55,1.19-2.05,2.09-.5.9-.76,1.96-.76,3.19s.25,2.26.76,3.19,1.19,1.63,2.05,2.12c.86.49,1.82.74,2.88.74Z"/>
    <path class="cls-1" d="m188.33,9.14c1.56,0,2.93.3,4.12.9,1.19.6,2.14,1.52,2.84,2.77.71,1.25,1.06,2.84,1.06,4.79v11.02h-4.5v-10.44c0-1.7-.4-2.98-1.19-3.82-.79-.84-1.92-1.26-3.38-1.26-1.06,0-1.99.22-2.81.65-.82.43-1.45,1.07-1.89,1.93-.44.85-.67,1.93-.67,3.22v9.72h-4.46V9.39h4.28v5.22l-.76-1.62c.65-1.22,1.61-2.17,2.9-2.84,1.28-.67,2.77-1.01,4.45-1.01Z"/>
    <path class="cls-1" d="m208.05,28.86c-1.63,0-3.18-.21-4.64-.63-1.46-.42-2.64-.93-3.53-1.53l1.73-3.42c.86.55,1.9,1,3.1,1.35,1.2.35,2.41.52,3.64.52,1.39,0,2.41-.19,3.04-.56.64-.37.95-.88.95-1.53,0-.53-.22-.93-.65-1.21-.43-.28-1-.49-1.69-.63-.7-.14-1.47-.28-2.32-.4s-1.7-.28-2.56-.49c-.85-.2-1.63-.5-2.32-.9s-1.26-.93-1.69-1.6c-.43-.67-.65-1.57-.65-2.7,0-1.2.35-2.25,1.04-3.15.7-.9,1.67-1.6,2.93-2.11,1.26-.5,2.75-.76,4.48-.76,1.27,0,2.57.15,3.91.45,1.33.3,2.44.71,3.33,1.24l-1.76,3.42c-.89-.53-1.8-.89-2.74-1.1-.94-.2-1.86-.31-2.77-.31-1.34,0-2.35.2-3.02.59-.67.4-1.01.91-1.01,1.53,0,.58.22,1.01.65,1.3s1,.51,1.69.67c.7.16,1.47.3,2.32.43.85.13,1.7.3,2.54.5.84.2,1.61.49,2.32.86s1.28.89,1.71,1.57.65,1.55.65,2.63c0,1.22-.35,2.27-1.06,3.15-.71.88-1.7,1.56-2.99,2.05s-2.83.74-4.63.74Z"/>
  </g>
</svg>