<?xml version="1.0" encoding="UTF-8"?>
<svg id="Layer_1" data-name="Layer 1" xmlns="http://www.w3.org/2000/svg" viewBox="0 0 939.99 273.91">
  <defs>
    <style>
      .cls-1 {
        fill: #f3f5f9;
      }

      .cls-2 {
        fill: #fd0;
      }
    </style>
  </defs>
  <g>
    <path class="cls-1" d="m60.4,150c-10.67,0-20.28-1.88-28.85-5.65-8.57-3.77-15.6-9.17-21.1-16.2-5.5-7.03-8.98-15.42-10.45-25.15l28.4-4.2c2,8.27,6.13,14.63,12.4,19.1,6.27,4.47,13.4,6.7,21.4,6.7,4.47,0,8.8-.7,13-2.1,4.2-1.4,7.65-3.47,10.35-6.2,2.7-2.73,4.05-6.1,4.05-10.1,0-1.47-.22-2.88-.65-4.25-.43-1.37-1.15-2.65-2.15-3.85-1-1.2-2.42-2.33-4.25-3.4-1.83-1.07-4.15-2.03-6.95-2.9l-37.4-11c-2.8-.8-6.05-1.93-9.75-3.4-3.7-1.47-7.28-3.57-10.75-6.3-3.47-2.73-6.35-6.35-8.65-10.85-2.3-4.5-3.45-10.18-3.45-17.05,0-9.67,2.43-17.7,7.3-24.1,4.87-6.4,11.37-11.17,19.5-14.3C40.53,1.67,49.53.13,59.4.2c9.93.13,18.8,1.83,26.6,5.1,7.8,3.27,14.33,8.02,19.6,14.25,5.27,6.23,9.07,13.85,11.4,22.85l-29.4,5c-1.07-4.67-3.03-8.6-5.9-11.8-2.87-3.2-6.28-5.63-10.25-7.3-3.97-1.67-8.12-2.57-12.45-2.7-4.27-.13-8.28.45-12.05,1.75-3.77,1.3-6.83,3.18-9.2,5.65-2.37,2.47-3.55,5.4-3.55,8.8,0,3.13.97,5.68,2.9,7.65,1.93,1.97,4.37,3.55,7.3,4.75,2.93,1.2,5.93,2.2,9,3l25,6.8c3.73,1,7.87,2.32,12.4,3.95,4.53,1.63,8.88,3.9,13.05,6.8,4.17,2.9,7.6,6.72,10.3,11.45,2.7,4.73,4.05,10.73,4.05,18,0,7.73-1.62,14.48-4.85,20.25-3.23,5.77-7.58,10.53-13.05,14.3-5.47,3.77-11.65,6.58-18.55,8.45-6.9,1.87-14.02,2.8-21.35,2.8Z"/>
    <path class="cls-1" d="m188.8,150c-10.87,0-20.4-2.43-28.6-7.3-8.2-4.87-14.58-11.58-19.15-20.15-4.57-8.57-6.85-18.42-6.85-29.55s2.33-21.18,7-29.75c4.67-8.57,11.1-15.25,19.3-20.05,8.2-4.8,17.63-7.2,28.3-7.2s20.42,2.43,28.65,7.3c8.23,4.87,14.65,11.58,19.25,20.15,4.6,8.57,6.9,18.42,6.9,29.55s-2.32,21.08-6.95,29.65c-4.63,8.57-11.07,15.27-19.3,20.1-8.23,4.83-17.75,7.25-28.55,7.25Zm0-25.4c8.73,0,15.25-2.95,19.55-8.85,4.3-5.9,6.45-13.48,6.45-22.75s-2.18-17.27-6.55-23c-4.37-5.73-10.85-8.6-19.45-8.6-5.93,0-10.8,1.33-14.6,4-3.8,2.67-6.62,6.37-8.45,11.1-1.83,4.73-2.75,10.23-2.75,16.5,0,9.67,2.18,17.35,6.55,23.05,4.37,5.7,10.78,8.55,19.25,8.55Z"/>
    <path class="cls-1" d="m267.6,147V0h27.2v147h-27.2Z"/>
    <path class="cls-1" d="m365,150.2c-8.47,0-15.37-1.43-20.7-4.3-5.33-2.87-9.48-6.5-12.45-10.9-2.97-4.4-5.08-8.98-6.35-13.75-1.27-4.77-2.03-9.12-2.3-13.05-.27-3.93-.4-6.8-.4-8.6v-60.6h27.6v51c0,2.47.13,5.62.4,9.45.27,3.83,1.1,7.68,2.5,11.55,1.4,3.87,3.68,7.1,6.85,9.7,3.17,2.6,7.65,3.9,13.45,3.9,2.33,0,4.83-.37,7.5-1.1,2.67-.73,5.17-2.15,7.5-4.25,2.33-2.1,4.25-5.2,5.75-9.3,1.5-4.1,2.25-9.48,2.25-16.15l15.6,7.4c0,8.53-1.73,16.53-5.2,24-3.47,7.47-8.68,13.5-15.65,18.1-6.97,4.6-15.75,6.9-26.35,6.9Zm35-3.2v-35.8h-3.4V39h27.4v108h-24Z"/>
    <path class="cls-1" d="m439.99,60v-21h76.8v21h-76.8Zm76.8,87c-7.47,1.4-14.78,2.02-21.95,1.85-7.17-.17-13.57-1.43-19.2-3.8-5.63-2.37-9.92-6.18-12.85-11.45-2.67-4.93-4.07-9.95-4.2-15.05-.13-5.1-.2-10.88-.2-17.35V9h27.2v90.6c0,4.2.05,7.98.15,11.35.1,3.37.78,6.05,2.05,8.05,2.4,3.8,6.23,5.87,11.5,6.2,5.27.33,11.1.07,17.5-.8v22.6Z"/>
    <path class="cls-1" d="m542.79,24V0h27.2v24h-27.2Zm0,123V39h27.2v108h-27.2Z"/>
    <path class="cls-1" d="m648.59,150c-10.87,0-20.4-2.43-28.6-7.3-8.2-4.87-14.58-11.58-19.15-20.15-4.57-8.57-6.85-18.42-6.85-29.55s2.33-21.18,7-29.75c4.67-8.57,11.1-15.25,19.3-20.05,8.2-4.8,17.63-7.2,28.3-7.2s20.42,2.43,28.65,7.3c8.23,4.87,14.65,11.58,19.25,20.15,4.6,8.57,6.9,18.42,6.9,29.55s-2.32,21.08-6.95,29.65c-4.63,8.57-11.07,15.27-19.3,20.1-8.23,4.83-17.75,7.25-28.55,7.25Zm0-25.4c8.73,0,15.25-2.95,19.55-8.85,4.3-5.9,6.45-13.48,6.45-22.75s-2.18-17.27-6.55-23c-4.37-5.73-10.85-8.6-19.45-8.6-5.93,0-10.8,1.33-14.6,4-3.8,2.67-6.62,6.37-8.45,11.1-1.83,4.73-2.75,10.23-2.75,16.5,0,9.67,2.18,17.35,6.55,23.05,4.37,5.7,10.78,8.55,19.25,8.55Z"/>
    <path class="cls-1" d="m725.19,147V39h24.2v35.8h3.4v72.2h-27.6Zm73.8,0v-51c0-2.47-.13-5.62-.4-9.45-.27-3.83-1.1-7.68-2.5-11.55-1.4-3.87-3.68-7.1-6.85-9.7-3.17-2.6-7.65-3.9-13.45-3.9-2.33,0-4.83.37-7.5,1.1-2.67.73-5.17,2.15-7.5,4.25-2.33,2.1-4.25,5.18-5.75,9.25-1.5,4.07-2.25,9.47-2.25,16.2l-15.6-7.4c0-8.53,1.73-16.53,5.2-24,3.47-7.47,8.68-13.5,15.65-18.1,6.96-4.6,15.75-6.9,26.35-6.9,8.47,0,15.37,1.43,20.7,4.3,5.33,2.87,9.48,6.5,12.45,10.9,2.96,4.4,5.08,8.98,6.35,13.75,1.27,4.77,2.03,9.12,2.3,13.05.27,3.93.4,6.8.4,8.6v60.6h-27.6Z"/>
    <path class="cls-1" d="m894.79,150c-13.6,0-24.58-3.08-32.95-9.25-8.37-6.17-13.45-14.88-15.25-26.15l27.8-4.2c1.13,5.07,3.65,9.03,7.55,11.9,3.9,2.87,8.85,4.3,14.85,4.3,4.93,0,8.73-.95,11.4-2.85,2.67-1.9,4-4.55,4-7.95,0-2.13-.53-3.85-1.6-5.15-1.07-1.3-3.45-2.58-7.15-3.85-3.7-1.27-9.45-2.93-17.25-5-8.8-2.27-15.83-4.8-21.1-7.6-5.27-2.8-9.07-6.15-11.4-10.05-2.33-3.9-3.5-8.62-3.5-14.15,0-6.93,1.77-12.95,5.3-18.05,3.53-5.1,8.52-9.03,14.95-11.8,6.43-2.77,14.02-4.15,22.75-4.15s15.97,1.3,22.5,3.9c6.53,2.6,11.82,6.3,15.85,11.1,4.03,4.8,6.52,10.47,7.45,17l-27.8,5c-.47-4-2.2-7.17-5.2-9.5-3-2.33-7.07-3.7-12.2-4.1-5-.33-9.02.33-12.05,2-3.04,1.67-4.55,4.07-4.55,7.2,0,1.87.65,3.43,1.95,4.7,1.3,1.27,4,2.57,8.1,3.9,4.1,1.33,10.35,3.07,18.75,5.2,8.2,2.13,14.78,4.62,19.75,7.45,4.96,2.83,8.58,6.23,10.85,10.2,2.27,3.97,3.4,8.75,3.4,14.35,0,11.07-4,19.77-12,26.1-8,6.33-19.07,9.5-33.2,9.5Z"/>
  </g>
  <g>
    <path class="cls-1" d="m688.72,252.31v-64.8h25.92c4.62,0,8.35.92,11.21,2.77,2.85,1.85,4.93,4.16,6.25,6.95s1.98,5.61,1.98,8.46c0,3.63-.82,6.65-2.45,9.04-1.63,2.4-3.88,4.01-6.73,4.82v-2.25c4.05.84,7.09,2.72,9.11,5.62,2.02,2.91,3.04,6.16,3.04,9.76,0,3.87-.71,7.28-2.14,10.22-1.42,2.94-3.59,5.24-6.5,6.91-2.91,1.67-6.57,2.5-10.98,2.5h-28.71Zm12.42-39.51h13.32c1.38,0,2.61-.24,3.69-.72,1.08-.48,1.93-1.22,2.56-2.23.63-1,.95-2.3.95-3.89,0-1.98-.62-3.65-1.85-5-1.23-1.35-3.01-2.02-5.35-2.02h-13.32v13.86Zm0,27.99h15.03c1.65,0,3.12-.35,4.41-1.06,1.29-.7,2.3-1.69,3.04-2.97.74-1.27,1.1-2.78,1.1-4.52,0-1.53-.31-2.9-.94-4.1-.63-1.2-1.58-2.15-2.86-2.86-1.28-.7-2.86-1.06-4.75-1.06h-15.03v16.56Z"/>
    <path class="cls-1" d="m752.26,273.91l9.36-25.74.18,7.56-21.15-52.02h12.69l14.22,36.81h-2.88l14.13-36.81h12.24l-27.45,70.2h-11.34Z"/>
  </g>
  <g id="layer1">
    <g id="g992">
      <path id="path988" class="cls-2" d="m914.83,248.66c-3.63,5.71-7.56,9.99-11.77,12.84-4.07,2.71-8.87,4.14-14.1,4.14-2.62,0-4.94-.43-7.12-1.14,3.78-3.71,7.41-8.56,10.61-14.55h-2.76c-3.63,5.71-7.56,10.13-11.77,12.84-2.18-1.28-4.22-2.71-5.96-4.85-4.36-5.14-6.54-12.27-6.54-20.97s1.6-17.4,4.65-25.82c3.78-10.27,9.01-18.26,15.7-23.82,1.16-1,2.47-1.85,3.78-2.71.29.29.58.43.73.71,1.45,1.57,2.47,3.42,3.2,5.56s1.16,4.56,1.31,7.42l.29,7.56h2.18l4.94-24.96c.44,0,.87-.14,1.45-.14,1.74,0,3.34.14,4.94.57l4.8,2.14c.87.57,1.45,1.14,2.18,1.85,1.31,1.43,2.33,3.28,3.05,5.28l1.31,7.13.29,8.7h4.36l6.54-32.52h-4.22l-3.63,4.14-1.89.43c-.44,0-1.6-.14-4.22-1.28-4.94-2.14-9.59-3.28-13.66-3.28-5.52,0-11.05,1.14-16.42,3.57-3.49-1.28-6.69-1.85-9.59-1.85-8.28,0-16.57,2.71-24.85,8.27-8.14,5.56-14.68,13.12-19.33,22.68-4.65,9.7-6.98,19.54-6.98,29.81,0,6.7,1.31,12.84,3.92,18.69,2.62,5.85,6.54,10.27,11.48,13.41,5.09,3.14,10.9,4.85,17.44,4.85,4.51,0,8.43-.71,12.21-2.14,4.22,1.85,8.87,2.71,13.95,2.71,7.56,0,14.24-2,19.77-5.85,5.38-3.85,10.32-9.99,14.83-18.12l.87-1.71h-5.38l-.58.43Zm-52.03,18.54c-7.41,0-13.37-2.71-17.88-8.13-4.65-5.42-6.83-12.55-6.83-21.68s1.6-17.55,4.8-26.25c3.92-10.41,9.16-18.54,15.99-24.25,5.38-4.42,11.63-6.7,18.6-6.7,1.16,0,2.33.14,3.34.29-1.02.57-2.03,1.14-2.91,1.85-8.28,5.56-14.97,13.41-19.77,23.11-4.8,9.7-7.12,19.97-7.12,30.24,0,6.85,1.31,13.27,4.07,19.12,2.33,4.99,5.52,8.99,9.59,12.13-.58.29-1.16.29-1.89.29Z"/>
      <polygon id="polygon990" class="cls-2" points="922.68 243.67 922.39 238.82 931.26 239.67 930.09 236.39 939.83 229.4 937.22 227.69 939.4 221.98 933.15 222.56 931.84 219.85 927.62 225.12 926.46 224.55 928.5 214.71 925.59 216.85 921.37 209.72 917.45 216.56 914.4 214.57 916.43 224.55 915.27 224.98 911.2 219.99 909.75 222.56 903.79 221.98 905.82 227.83 902.91 229.4 912.65 236.39 911.78 239.67 920.94 238.82 920.5 243.67 922.68 243.67"/>
    </g>
  </g>
</svg>